<svg width="200" height="294" viewBox="0 0 200 294" fill="none" xmlns="http://www.w3.org/2000/svg">
<g clip-path="url(#clip0_897_1293)">
<path d="M164.368 19.6849C147.537 18.2389 119.712 13.7608 99.3507 0C78.9894 13.7608 51.1724 18.2389 34.333 19.6849C25.9754 20.4079 19.5693 27.4049 19.5693 35.7936V77.7678C19.5693 77.7678 20.1368 101.192 38.1113 127.804C37.2328 123.761 36.6497 119.625 36.3854 115.419C35.8801 109.332 35.9267 102.592 37.2406 96.4653C44.4164 66.1528 80.6376 57.9818 99.8171 78.9651C110.748 69.0682 127.828 66.3471 140.672 74.2304C144.17 76.2906 147.226 78.9651 149.69 82.0593C151.385 84.1817 150.849 87.3148 148.586 88.8153C137.228 73.8417 112.583 75.9019 105.702 93.7365C103.323 98.8832 95.4712 98.821 93.1078 93.7598C82.2391 73.5229 53.909 79.3849 50.6049 101.83C47.8916 129.639 60.8749 155.862 84.0506 169.879C88.8007 172.678 93.7686 175.407 99.4595 177.91C177.616 141.231 179.14 77.7756 179.14 77.7756V35.8013C179.14 27.4127 172.741 20.4157 164.384 19.6927L164.368 19.6849ZM142.662 46.3512C136.785 47.4941 132.618 51.6612 131.475 57.5387C131.405 57.8963 130.915 57.8963 130.845 57.5387C129.702 51.6612 125.535 47.4941 119.658 46.3512C119.3 46.2813 119.3 45.7915 119.658 45.7215C125.535 44.5787 129.702 40.4116 130.845 34.5341C130.915 34.1765 131.405 34.1765 131.475 34.5341C132.618 40.4116 136.785 44.5787 142.662 45.7215C143.02 45.7915 143.02 46.2813 142.662 46.3512Z" fill="white"/>
<path style="mix-blend-mode:multiply" d="M164.368 19.6849C147.537 18.2389 119.712 13.7608 99.3507 0V78.4908C99.4984 78.6541 99.6616 78.794 99.8094 78.9573C110.74 69.0604 127.821 66.3394 140.664 74.2226C144.163 76.2829 147.218 78.9573 149.682 82.0515C151.377 84.1739 150.841 87.307 148.578 88.8075C137.22 73.8339 112.575 75.8941 105.695 93.7287C104.497 96.3176 101.916 97.5849 99.3429 97.5615V177.856C99.3429 177.856 99.4129 177.887 99.444 177.903C177.6 141.223 179.124 77.7678 179.124 77.7678V35.7936C179.124 27.4049 172.726 20.4079 164.368 19.6849Z" fill="url(#paint0_linear_897_1293)"/>
<g opacity="0.1">
<path d="M34.333 32.4894C51.1646 31.0356 78.9894 26.5575 99.3507 12.8045C119.712 26.5653 147.537 31.0434 164.376 32.4894C172.734 33.2124 179.132 40.2094 179.132 48.5981V35.7936C179.132 27.4049 172.734 20.4079 164.376 19.6849C147.544 18.2311 119.712 13.7608 99.3507 0C78.9894 13.7608 51.1724 18.2389 34.333 19.6849C25.9754 20.4079 19.5693 27.4049 19.5693 35.7936V48.5981C19.5693 40.2094 25.9754 33.2124 34.333 32.4894Z" fill="url(#paint1_linear_897_1293)"/>
</g>
<g opacity="0.1">
<path d="M36.3232 114.37C20.1135 88.9085 19.5693 67.0778 19.5693 67.0778V35.7935V77.7677C19.5693 77.7677 20.1368 101.192 38.1113 127.804C37.2328 123.761 36.6497 119.625 36.3854 115.419C36.3543 115.077 36.3543 114.72 36.3232 114.37Z" fill="#E753FF"/>
<path d="M179.132 35.7935V67.0778C179.132 67.0778 177.616 130.58 99.3507 167.259C81.3062 158.801 67.3821 148.912 56.5757 138.712C62.3054 151.477 71.7125 162.416 84.0428 169.872C88.793 172.67 93.7608 175.399 99.4517 177.903C177.608 141.223 179.132 77.7677 179.132 77.7677V35.7935Z" fill="#E753FF"/>
</g>
</g>
<g clip-path="url(#clip1_897_1293)">
<path d="M191.023 208.146C174.9 208.146 164.085 219.649 164.437 234.665V269.623H177.596V251.311H181.131C188.397 251.311 194.29 245.455 194.29 238.234H177.596V234.462C177.568 233.623 177.399 221.231 191.023 221.231C193.614 221.231 195.923 219.607 196.782 217.179L199.993 208.146H191.016H191.023Z" fill="white"/>
<path d="M118.01 269.623H104.851V208.93C112.117 208.93 118.01 214.786 118.01 222.007V225.478C121.15 223.778 124.741 222.812 128.635 222.791C143.751 222.427 155.333 233.203 155.333 249.212V269.616H142.174V248.1C142.174 241.459 136.76 236.079 130.078 236.079C123.389 236.079 117.975 241.466 117.982 248.114L118.01 269.616V269.623Z" fill="white"/>
<path d="M0 208.93V269.623H13.1662V258.071L20.2774 249.961L28.7686 264.704C30.5076 267.72 33.7253 269.581 37.2245 269.595L46.7718 269.623L29.0995 240.151L46.3142 220.412H35.8727C32.7466 220.412 29.7754 221.783 27.7547 224.155L13.1662 241.327V222.014C13.1662 214.786 7.27311 208.93 0 208.93Z" fill="white"/>
<path d="M71.9144 219.642C58.023 219.642 46.7648 230.831 46.7648 244.636C46.7648 258.442 58.023 269.63 71.9144 269.63C76.2515 269.63 80.3352 268.538 83.8978 266.614V269.63H97.057V244.636C97.057 230.831 85.7988 219.642 71.9074 219.642H71.9144ZM83.8978 244.636L83.5528 256.363C83.5387 256.916 82.8628 257.182 82.4685 256.797L79.4691 253.872C77.195 255.713 74.2378 256.741 71.0343 256.51C65.3946 256.112 60.6703 251.661 60.0085 246.078C58.9876 237.471 67.2041 230.418 76.0896 233.42C80.835 235.022 83.8907 239.64 83.8907 244.622L83.8978 244.636Z" fill="white"/>
<path d="M15.6657 290.78C15.6375 292.319 14.3209 293.529 12.772 293.529H0.295712C0.133775 293.529 0 293.396 0 293.236V284.482C0 284.321 0.133775 284.188 0.295712 284.188H12.6311C14.1308 284.188 15.4122 285.329 15.5108 286.812C15.5601 287.561 15.3066 288.1 14.8701 288.631C15.377 289.149 15.6798 290.003 15.6657 290.787V290.78ZM1.73907 286.203V287.778C1.73907 287.862 1.80244 287.925 1.88693 287.925H12.8283C13.3563 287.925 13.7858 287.491 13.7717 286.959C13.7577 286.448 13.307 286.056 12.7931 286.056H1.89397C1.80948 286.056 1.74611 286.126 1.74611 286.203H1.73907ZM13.9266 290.759C13.9407 290.227 13.5183 289.646 12.9832 289.646H1.89397C1.80948 289.646 1.74611 289.709 1.74611 289.793V291.514C1.74611 291.598 1.80948 291.661 1.89397 291.661H12.948C13.4619 291.661 13.9126 291.269 13.9266 290.759Z" fill="white"/>
<path d="M42.653 292.986C42.6952 293.287 42.4629 293.539 42.1672 293.539H41.3786C40.9843 293.539 40.5971 293.406 40.2802 293.168L36.3656 290.167C36.0487 289.929 35.6685 289.796 35.2742 289.796H28.8883C28.8038 289.796 28.7404 289.859 28.7404 289.943V292.644C28.7404 293.133 28.3391 293.532 27.8462 293.532H27.3041C27.1422 293.532 27.0084 293.399 27.0084 293.238V288.97C27.0084 288.48 27.4097 288.081 27.9026 288.081H39.9916C40.5196 288.081 40.9491 287.648 40.928 287.116C40.9139 286.605 40.4633 286.059 39.9493 286.059H27.9026C27.4097 286.059 27.0084 285.66 27.0084 285.171V284.492C27.0084 284.331 27.1422 284.198 27.3041 284.198H39.8507C41.442 284.198 42.7234 285.66 42.667 287.256C42.6107 288.774 41.3082 289.81 39.7803 289.81H38.9777C38.9002 289.81 38.865 289.908 38.9284 289.957L42.4629 292.665C42.5685 292.749 42.653 292.86 42.667 292.993L42.653 292.986Z" fill="white"/>
<path d="M58.4595 284.191H65.1623C67.6406 284.191 69.6472 286.185 69.6472 288.648V289.082C69.6472 291.545 67.6406 293.539 65.1623 293.539H58.4595C55.9811 293.539 53.9745 291.545 53.9745 289.082V288.648C53.9745 286.185 55.9811 284.191 58.4595 284.191ZM67.9011 289.082V288.641C67.9011 287.214 66.7394 286.059 65.3031 286.059H58.3187C56.8823 286.059 55.7206 287.214 55.7206 288.641V289.082C55.7206 290.509 56.8823 291.664 58.3187 291.664H65.3031C66.7394 291.664 67.9011 290.509 67.9011 289.082Z" fill="white"/>
<path d="M95.1911 284.191H95.7333C96.2261 284.191 96.6275 284.59 96.6275 285.08V289.075C96.6275 291.538 94.6208 293.532 92.1425 293.532H84.5455C82.0672 293.532 80.0605 291.538 80.0605 289.075V285.08C80.0605 284.59 80.4619 284.191 80.9547 284.191H81.4969C81.6658 284.191 81.7926 284.324 81.7926 284.485V289.082C81.7926 290.509 82.9613 291.664 84.3906 291.664H87.3125C87.397 291.664 87.4604 291.601 87.4604 291.517V285.08C87.4604 284.59 87.8617 284.191 88.3546 284.191H88.8967C89.0586 284.191 89.1924 284.324 89.1924 284.485V291.517C89.1924 291.601 89.2558 291.664 89.3403 291.664H92.2622C93.6985 291.664 94.8602 290.509 94.8602 289.082V284.485C94.8602 284.324 94.994 284.191 95.1559 284.191H95.1911Z" fill="white"/>
<path d="M122.573 286.059H110.632C110.111 286.059 109.695 286.626 109.695 287.144C109.695 287.661 110.118 288.081 110.632 288.081H120.798C122.354 288.081 123.622 289.187 123.622 290.733C123.622 292.28 122.361 293.539 120.798 293.539H108.4C108.238 293.539 108.104 293.406 108.104 293.245V292.566C108.104 292.077 108.505 291.678 108.998 291.678H120.939C121.46 291.678 121.883 291.258 121.883 290.747C121.883 290.236 121.46 289.81 120.939 289.81H110.779C109.223 289.81 107.956 288.704 107.956 287.158C107.956 285.611 109.223 284.205 110.779 284.205H123.171C123.333 284.205 123.467 284.338 123.467 284.499V285.177C123.467 285.667 123.066 286.066 122.573 286.066V286.059Z" fill="white"/>
<path d="M139.28 286.059C137.844 286.059 136.682 287.214 136.682 288.641V289.082C136.682 290.509 137.844 291.664 139.28 291.664H149.708C150.201 291.664 150.602 292.063 150.602 292.553V293.231C150.602 293.392 150.468 293.525 150.306 293.525H139.421C136.943 293.525 134.936 291.531 134.936 289.068V288.634C134.936 286.171 136.943 284.177 139.421 284.177H150.306C150.468 284.177 150.602 284.31 150.602 284.471V285.15C150.602 285.639 150.201 286.038 149.708 286.038H139.28V286.059ZM138.421 288.823C138.421 288.333 138.823 287.934 139.316 287.934H148.567C148.729 287.934 148.863 288.067 148.863 288.228V288.76C148.863 289.25 148.462 289.649 147.969 289.649H139.259C138.795 289.649 138.421 289.278 138.421 288.823Z" fill="white"/>
<path d="M177.596 292.986C177.639 293.287 177.406 293.539 177.11 293.539H176.322C175.928 293.539 175.54 293.406 175.224 293.168L171.309 290.167C170.992 289.929 170.612 289.796 170.218 289.796H163.832C163.747 289.796 163.684 289.859 163.684 289.943V292.644C163.684 293.133 163.282 293.532 162.79 293.532H162.247C162.085 293.532 161.952 293.399 161.952 293.238V288.97C161.952 288.48 162.353 288.081 162.846 288.081H174.935C175.463 288.081 175.892 287.648 175.871 287.116C175.857 286.605 175.407 286.059 174.893 286.059H162.846C162.353 286.059 161.952 285.66 161.952 285.171V284.492C161.952 284.331 162.085 284.198 162.247 284.198H174.794C176.385 284.198 177.667 285.66 177.61 287.256C177.554 288.774 176.252 289.81 174.724 289.81H173.921C173.844 289.81 173.808 289.908 173.872 289.957L177.406 292.665C177.512 292.749 177.596 292.86 177.61 292.993L177.596 292.986Z" fill="white"/>
</g>
<defs>
<linearGradient id="paint0_linear_897_1293" x1="32.5993" y1="144.41" x2="125.823" y2="71.0895" gradientUnits="userSpaceOnUse">
<stop stop-color="#A800FF" stop-opacity="0.3"/>
<stop offset="1" stop-color="#3161F1" stop-opacity="0"/>
</linearGradient>
<linearGradient id="paint1_linear_897_1293" x1="19.5693" y1="24.2951" x2="179.132" y2="24.2951" gradientUnits="userSpaceOnUse">
<stop stop-color="#E753FF"/>
<stop offset="1" stop-color="#3154F1"/>
</linearGradient>
<clipPath id="clip0_897_1293">
<rect width="159.563" height="177.903" fill="white" transform="translate(19.5693)"/>
</clipPath>
<clipPath id="clip1_897_1293">
<rect width="200" height="85.3933" fill="white" transform="translate(0 208.146)"/>
</clipPath>
</defs>
</svg>
