<svg width="300" height="273" viewBox="0 0 300 273" fill="none" xmlns="http://www.w3.org/2000/svg">
<g clip-path="url(#clip0_1341_1057)">
<path d="M250.052 30.5495C224.239 28.3324 181.553 21.4653 150.327 0.359985C119.116 21.4653 76.4443 28.318 50.6313 30.5495C37.8184 31.658 28 42.3834 28 55.2395V119.592C28 119.592 28.6478 146.11 46.3124 179.453C48.3135 183.225 54.0577 181.569 53.7842 177.308C53.0067 167.979 53.0787 157.642 55.0942 148.241C66.0932 101.769 121.635 89.2297 151.047 121.406C167.805 106.232 193.992 102.057 213.686 114.136C219.056 117.288 223.735 121.391 227.521 126.128C230.113 129.382 229.292 134.19 225.823 136.493C208.403 113.531 170.612 116.698 160.074 144.037C156.431 151.926 144.381 151.826 140.754 144.066C124.082 113.042 80.6481 122.025 75.5805 156.447C71.4199 199.075 91.3303 239.299 126.875 260.793C134.16 265.083 141.776 269.272 150.5 273.116C270.351 216.869 272.669 119.578 272.669 119.578V55.2251C272.669 42.3834 262.865 31.6292 250.066 30.5351L250.052 30.5495Z" fill="url(#paint0_linear_1341_1057)"/>
<path style="mix-blend-mode:overlay" opacity="0.3" d="M151.033 16.3977C151.033 11.0998 150.529 5.90266 149.593 0.849487C118.439 21.5517 76.2571 28.3468 50.6313 30.5495C37.8184 31.658 28 42.3834 28 55.2395V107.312C34.9103 108.679 42.0942 109.414 49.4508 109.414C105.554 109.414 151.033 67.7645 151.033 16.3833V16.3977Z" fill="url(#paint1_linear_1341_1057)"/>
<path style="mix-blend-mode:multiply" d="M250.023 30.5495C224.21 28.318 181.553 21.4653 150.327 0.359985V120.715C150.557 120.96 150.802 121.19 151.033 121.435C167.79 106.261 193.977 102.086 213.672 114.164C219.042 117.317 223.721 121.42 227.507 126.157C230.098 129.41 229.278 134.219 225.808 136.522C208.388 113.56 170.597 116.727 160.059 144.066C158.231 148.039 154.272 149.983 150.327 149.94V273.059C150.327 273.059 150.428 273.102 150.486 273.131C270.336 216.884 272.654 119.592 272.654 119.592V55.2395C272.654 42.369 262.836 31.6436 250.023 30.5351V30.5495Z" fill="url(#paint2_linear_1341_1057)"/>
<g style="mix-blend-mode:screen" opacity="0.1">
<path d="M50.6313 50.1719C76.4443 47.9405 119.101 41.0877 150.327 19.9824C181.553 41.0877 224.21 47.9405 250.023 50.1719C262.836 51.2804 272.654 62.0058 272.654 74.8619V55.2395C272.654 42.369 262.836 31.6436 250.023 30.5351C224.21 28.318 181.539 21.4509 150.327 0.345581C119.116 21.4653 76.4587 28.318 50.6313 30.5495C37.8184 31.658 28 42.3834 28 55.2395V74.8619C28 61.9915 37.8184 51.266 50.6313 50.1575V50.1719Z" fill="white"/>
</g>
<path d="M181.481 71.4355C190.493 73.1775 196.885 79.584 198.627 88.5818C198.728 89.1289 199.477 89.1289 199.592 88.5818C201.334 79.5696 207.74 73.1775 216.738 71.4355C217.285 71.3348 217.285 70.5862 216.738 70.471C207.726 68.729 201.334 62.3226 199.592 53.3247C199.491 52.7777 198.743 52.7777 198.627 53.3247C196.885 62.3369 190.479 68.729 181.481 70.471C180.934 70.5718 180.934 71.3204 181.481 71.4355Z" fill="white"/>
<g style="mix-blend-mode:multiply" opacity="0.1">
<path d="M53.6834 175.724C28.835 136.695 28 103.209 28 103.209V55.2395V119.592C28 119.592 28.6478 146.11 46.3124 179.467C48.3135 183.239 54.0577 181.583 53.7842 177.322C53.741 176.789 53.7266 176.242 53.6978 175.71L53.6834 175.724Z" fill="black"/>
<path d="M272.654 55.2395V103.209C272.654 103.209 270.322 200.587 150.327 256.819C122.657 243.848 101.307 228.689 84.7367 213.054C93.533 232.633 107.944 249.391 126.861 260.822C134.146 265.112 141.761 269.301 150.486 273.145C270.337 216.898 272.654 119.606 272.654 119.606V55.2539V55.2395Z" fill="black"/>
</g>
<path d="M192.998 114.236C212.506 114.827 223.404 126.401 228.313 133.571C229.422 131.21 229.249 128.345 227.507 126.157C223.721 121.42 219.042 117.317 213.672 114.164C193.977 102.086 167.776 106.246 151.033 121.435C121.621 89.2585 66.0932 101.798 55.0799 148.27C53.0787 157.671 52.9924 168.007 53.7698 177.336C54.1585 183.512 55.0079 189.588 56.246 195.548C56.3611 196.066 56.5627 196.556 56.865 196.988C61.5871 203.912 67.1153 210.967 73.5074 218.021C66.3811 198.528 54.0433 153.654 79.4963 127.424C103.351 102.849 134.217 117.447 146.829 132.448C148.7 134.665 152.084 134.723 153.955 132.506C159.843 125.523 172.887 113.646 192.984 114.251L192.998 114.236Z" fill="url(#paint3_linear_1341_1057)"/>
<path style="mix-blend-mode:overlay" opacity="0.3" d="M110.305 19.1042C88.4366 26.1009 66.3955 29.1962 50.6457 30.5495C37.8184 31.658 28 42.3834 28 55.2395V100.747C73.2338 100.747 109.945 64.2517 110.305 19.0898V19.1042Z" fill="url(#paint4_linear_1341_1057)"/>
</g>
<defs>
<linearGradient id="paint0_linear_1341_1057" x1="43.6634" y1="-1.00769" x2="244.869" y2="200.198" gradientUnits="userSpaceOnUse">
<stop stop-color="#E753FF"/>
<stop offset="1" stop-color="#3154F1"/>
</linearGradient>
<linearGradient id="paint1_linear_1341_1057" x1="28" y1="55.1243" x2="151.033" y2="55.1243" gradientUnits="userSpaceOnUse">
<stop stop-color="#DBDBDB"/>
<stop offset="1" stop-color="white" stop-opacity="0"/>
</linearGradient>
<linearGradient id="paint2_linear_1341_1057" x1="47.9824" y1="221.778" x2="190.911" y2="109.356" gradientUnits="userSpaceOnUse">
<stop stop-opacity="0.3"/>
<stop offset="1" stop-color="#3161F1" stop-opacity="0"/>
</linearGradient>
<linearGradient id="paint3_linear_1341_1057" x1="207.352" y1="76.6471" x2="6.5924" y2="250.096" gradientUnits="userSpaceOnUse">
<stop stop-color="#DBDBDB"/>
<stop offset="1" stop-color="white" stop-opacity="0"/>
</linearGradient>
<linearGradient id="paint4_linear_1341_1057" x1="28" y1="59.9184" x2="110.305" y2="59.9184" gradientUnits="userSpaceOnUse">
<stop stop-color="#DBDBDB"/>
<stop offset="1" stop-color="white" stop-opacity="0"/>
</linearGradient>
<clipPath id="clip0_1341_1057">
<rect width="300" height="273" fill="white"/>
</clipPath>
</defs>
</svg>
